<svg width="400" height="300" xmlns="http://www.w3.org/2000/svg">
  <defs>
    <linearGradient id="silkGradient" x1="0%" y1="0%" x2="100%" y2="100%">
      <stop offset="0%" style="stop-color:#FF6B6B;stop-opacity:1" />
      <stop offset="25%" style="stop-color:#4ECDC4;stop-opacity:1" />
      <stop offset="50%" style="stop-color:#45B7D1;stop-opacity:1" />
      <stop offset="75%" style="stop-color:#96CEB4;stop-opacity:1" />
      <stop offset="100%" style="stop-color:#FFEAA7;stop-opacity:1" />
    </linearGradient>
    <pattern id="paisley" x="0" y="0" width="60" height="60" patternUnits="userSpaceOnUse">
      <path d="M15 10 Q25 5 35 15 Q30 25 25 35 Q15 30 10 20 Q15 15 15 10" fill="#2D3436" opacity="0.3"/>
    </pattern>
  </defs>
  
  <!-- Scarf background -->
  <rect x="50" y="50" width="300" height="200" fill="url(#silkGradient)" rx="10" ry="10"/>
  
  <!-- Paisley pattern overlay -->
  <rect x="50" y="50" width="300" height="200" fill="url(#paisley)" opacity="0.4" rx="10" ry="10"/>
  
  <!-- Border design -->
  <rect x="50" y="50" width="300" height="200" fill="none" stroke="#2D3436" stroke-width="3" rx="10" ry="10"/>
  
  <!-- Decorative border elements -->
  <rect x="60" y="60" width="280" height="15" fill="#2D3436" opacity="0.2"/>
  <rect x="60" y="225" width="280" height="15" fill="#2D3436" opacity="0.2"/>
  <rect x="60" y="60" width="15" height="180" fill="#2D3436" opacity="0.2"/>
  <rect x="325" y="60" width="15" height="180" fill="#2D3436" opacity="0.2"/>
  
  <!-- Traditional motifs -->
  <circle cx="120" cy="120" r="15" fill="#FDCB6E" opacity="0.8"/>
  <circle cx="280" cy="120" r="15" fill="#FDCB6E" opacity="0.8"/>
  <circle cx="200" cy="150" r="20" fill="#FD79A8" opacity="0.6"/>
  
  <!-- Geometric patterns -->
  <polygon points="150,100 170,100 160,120" fill="#00B894" opacity="0.7"/>
  <polygon points="230,100 250,100 240,120" fill="#00B894" opacity="0.7"/>
  <polygon points="150,180 170,180 160,200" fill="#00B894" opacity="0.7"/>
  <polygon points="230,180 250,180 240,200" fill="#00B894" opacity="0.7"/>
  
  <!-- Flowing lines -->
  <path d="M80 90 Q150 110 220 90 Q290 110 320 90" stroke="#E17055" stroke-width="2" fill="none"/>
  <path d="M80 210 Q150 190 220 210 Q290 190 320 210" stroke="#E17055" stroke-width="2" fill="none"/>
</svg>